<?xml version="1.0" encoding="utf-8"?>
<!-- Generator: Adobe Illustrator 24.2.3, SVG Export Plug-In . SVG Version: 6.00 Build 0)  -->
<svg version="1.1" id="Livello_1" xmlns="http://www.w3.org/2000/svg" xmlns:xlink="http://www.w3.org/1999/xlink" x="0px" y="0px"
	 viewBox="0 0 141.7 141.7" style="enable-background:new 0 0 141.7 141.7;" xml:space="preserve">
<style type="text/css">
	.st0{fill:#020203;}
</style>
<g id="Black-Logo-Square_1_">
	<path id="_xF8FF__1_" class="st0" d="M72.5,32.7c6.2,0,14-4.3,18.6-10.1c4.2-5.2,7.3-12.5,7.3-19.8c0-1-0.1-2-0.3-2.8
		c-6.9,0.3-15.2,4.8-20.2,10.8C74,15.4,70.4,22.6,70.4,30c0,1.1,0.2,2.2,0.3,2.5C71.1,32.6,71.8,32.7,72.5,32.7z M50.7,141.7
		c8.5,0,12.2-5.9,22.8-5.9c10.8,0,13.1,5.7,22.6,5.7c9.3,0,15.5-8.8,21.3-17.5c6.6-9.9,9.3-19.6,9.4-20.1
		c-0.6-0.2-18.4-7.7-18.4-28.7c0-18.2,14-26.4,14.8-27C114,34.6,99.9,34.2,96,34.2c-10.4,0-18.9,6.5-24.2,6.5
		c-5.8,0-13.4-6.1-22.4-6.1c-17.1,0-34.5,14.6-34.5,42.2c0,17.1,6.5,35.2,14.4,46.9C36.2,133.6,42.1,141.7,50.7,141.7z"/>
</g>
</svg>
