<?xml version="1.0" encoding="utf-8"?>
<!-- Generator: Adobe Illustrator 24.2.3, SVG Export Plug-In . SVG Version: 6.00 Build 0)  -->
<svg version="1.1" id="Livello_1" xmlns="http://www.w3.org/2000/svg" xmlns:xlink="http://www.w3.org/1999/xlink" x="0px" y="0px"
	 viewBox="0 0 141.7 141.7" style="enable-background:new 0 0 141.7 141.7;" xml:space="preserve">
<style type="text/css">
	.st10{fill:#3E5B9A;}
	.st11{fill:#FFFFFF;}
</style>
<g>
	<path id="Blue_1_" class="st10" d="M133.8,141.9c4.3,0,7.8-3.5,7.8-7.8V8c0-4.3-3.5-7.8-7.8-7.8H7.8C3.4,0.2-0.1,3.7-0.1,8v126.1
		c0,4.3,3.5,7.8,7.8,7.8H133.8z"/>
	<path id="f" class="st11" d="M97.7,141.9V87h18.4l2.8-21.4H97.7V52c0-6.2,1.7-10.4,10.6-10.4l11.3,0V22.4c-2-0.3-8.7-0.8-16.5-0.8
		c-16.3,0-27.5,10-27.5,28.3v15.8H57.2V87h18.5v54.9H97.7z"/>
</g>
</svg>
