<?xml version="1.0" encoding="utf-8"?>
<!-- Generator: Adobe Illustrator 24.2.3, SVG Export Plug-In . SVG Version: 6.00 Build 0)  -->
<svg version="1.1" id="Livello_1" xmlns="http://www.w3.org/2000/svg" xmlns:xlink="http://www.w3.org/1999/xlink" x="0px" y="0px"
	 viewBox="0 0 141.7 141.7" style="enable-background:new 0 0 141.7 141.7;" xml:space="preserve">
<style type="text/css">
	.st20{fill-rule:evenodd;clip-rule:evenodd;fill:#517CBE;}
	.st21{fill-rule:evenodd;clip-rule:evenodd;fill:#32A853;}
	.st22{fill-rule:evenodd;clip-rule:evenodd;fill:#FBBC0C;}
	.st23{fill-rule:evenodd;clip-rule:evenodd;fill:#E84436;}
	.st24{fill:none;}
</style>
<g id="btn_google_light_normal" transform="translate(-1.000000, -1.000000)">
	<g id="logo_googleg_48dp" transform="translate(15.000000, 15.000000)">
		<path id="Shape" class="st20" d="M124.8,58.7c0-5-0.5-9.9-1.3-14.5H56.8v27.4h38.1c-1.6,8.9-6.6,16.4-14.1,21.4v17.8h22.9
			C117.1,98.4,124.8,80.2,124.8,58.7L124.8,58.7z"/>
		<path id="Shape_1_" class="st21" d="M56.8,127.9c19.1,0,35.2-6.3,46.9-17.2L80.8,93c-6.3,4.3-14.5,6.8-24,6.8
			c-18.5,0-34.1-12.5-39.7-29.2H-6.5v18.4C5.1,112,29.1,127.9,56.8,127.9L56.8,127.9z"/>
		<path id="Shape_2_" class="st22" d="M17.1,70.5c-1.4-4.3-2.2-8.8-2.2-13.5s0.8-9.2,2.2-13.5V25.2H-6.5c-4.8,9.6-7.5,20.4-7.5,31.8
			s2.7,22.3,7.5,31.8L17.1,70.5L17.1,70.5z"/>
		<path id="Shape_3_" class="st23" d="M56.8,14.4c10.4,0,19.7,3.6,27.1,10.6l20.3-20.3C91.9-6.8,75.9-13.8,56.8-13.8
			c-27.7,0-51.7,15.9-63.3,39l23.7,18.4C22.7,26.8,38.3,14.4,56.8,14.4L56.8,14.4z"/>
		<path id="Shape_4_" class="st24" d="M-14.1-13.8h141.7v141.7H-14.1V-13.8z"/>
	</g>
	<g id="handles_square">
	</g>
</g>
</svg>
